<svg width="60" height="60" viewBox="0 0 60 60" fill="none" xmlns="http://www.w3.org/2000/svg">
<path d="M54.375 30C54.3759 34.2083 53.2873 38.3451 51.2151 42.0078C49.1429 45.6706 46.1577 48.7344 42.5501 50.9012C38.9425 53.0679 34.8353 54.2637 30.6285 54.3722C26.4216 54.4807 22.2583 53.4982 18.5437 51.5203L10.5633 54.1805C9.90254 54.4008 9.1935 54.4328 8.51561 54.2728C7.83772 54.1128 7.21778 53.7672 6.72528 53.2747C6.23277 52.7822 5.88716 52.1623 5.72718 51.4844C5.5672 50.8065 5.59918 50.0975 5.81953 49.4367L8.47969 41.4562C6.74097 38.1873 5.76984 34.5651 5.63999 30.8648C5.51015 27.1644 6.22501 23.4831 7.73032 20.1003C9.23562 16.7175 11.4918 13.7221 14.3276 11.3414C17.1634 8.96071 20.5043 7.25737 24.0967 6.36065C27.6891 5.46392 31.4386 5.39739 35.0605 6.1661C38.6825 6.93481 42.0817 8.51855 45.0002 10.7971C47.9187 13.0757 50.2797 15.9892 51.9041 19.3165C53.5285 22.6438 54.3735 26.2974 54.375 30Z" fill="#1078C2"/>
<path d="M22.66 34.36H27.14V37H19.24V22.96H22.66V34.36ZM39.7913 25.84V37H36.3713V35.48C36.0246 35.9733 35.5513 36.3733 34.9513 36.68C34.3646 36.9733 33.7113 37.12 32.9913 37.12C32.1379 37.12 31.3846 36.9333 30.7313 36.56C30.0779 36.1733 29.5713 35.62 29.2113 34.9C28.8513 34.18 28.6713 33.3333 28.6713 32.36V25.84H32.0713V31.9C32.0713 32.6467 32.2646 33.2267 32.6513 33.64C33.0379 34.0533 33.5579 34.26 34.2113 34.26C34.8779 34.26 35.4046 34.0533 35.7913 33.64C36.1779 33.2267 36.3713 32.6467 36.3713 31.9V25.84H39.7913Z" fill="white"/>
</svg>
